<svg xmlns="http://www.w3.org/2000/svg" xmlns:xlink="http://www.w3.org/1999/xlink" version="1.1" width="346pt" height="184pt" viewBox="0 0 346 184">
<defs>
<clipPath id="clip_0">
<path transform="matrix(1,0,0,-1,-129,774)" d="M0 0H595V842H0Z"/>
</clipPath>
</defs>
<g clip-path="url(#clip_0)">
<text xml:space="preserve" transform="matrix(.24238812 0 -0 .23763542 -111 152.08002)" font-size="99.014759" font-family="STXingkai"><tspan y="-556.71047" x="730.23379 829.3475 928.46127 1027.575 1126.6887 1225.8025 1324.9161 1424.0299">&#x4e2d;&#x56fd;&#x79d1;&#x5b66;&#x6280;&#x672f;&#x5927;&#x5b66;</tspan></text>
<text xml:space="preserve" transform="matrix(.24238812 0 -0 .23763542 -111 152.08002)" font-size="99.014759" font-family="STXingkai"><tspan y="-556.71047" x="730.23379 829.3475 928.46127 1027.575 1126.6887 1225.8025 1324.9161 1424.0299">&#x4e2d;&#x56fd;&#x79d1;&#x5b66;&#x6280;&#x672f;&#x5927;&#x5b66;</tspan></text>
<text xml:space="preserve" transform="matrix(.24238812 0 -0 .23763542 -111 152.08002)" font-size="99.014759" font-family="STXingkai"><tspan y="-556.71047" x="1523.1409"> </tspan></text>
<text xml:space="preserve" transform="matrix(.24238812 0 -0 .23763542 -111 152.08002)" font-size="99.014759" font-family="STXingkai"><tspan y="-556.71047" x="1523.1409"> </tspan></text>
<text xml:space="preserve" transform="matrix(.24 0 -0 .24 -111 152.08002)" font-size="75" font-family="TimesNewRomanPSMT"><tspan y="-467" x="474.7914 528.9564 566.4564 587.2914 624.7914 658.07638 683.05136 712.24136 733.0763 753.91128 791.41128 810.16128 847.66128 872.6362">University of </tspan></text>
<text xml:space="preserve" transform="matrix(.24 0 -0 .24 -111 152.08002)" font-size="75" font-family="TimesNewRomanPSMT"><tspan y="-467" x="891.393 933.10806 966.393 987.22799 1020.51296 1058.013 1091.298 1124.583 1143.333 1176.618 1214.118 1251.618 1269.0105 1309.5855 1342.8705 1376.1555 1413.6555 1451.1555 1488.6555 1509.4905 1546.9905 1584.4905 1621.9905 1640.7405 1678.2405 1703.2155 1721.9655 1771.9905 1809.4905 1830.3255 1867.8255">Science and Technology of China</tspan></text>
<text xml:space="preserve" transform="matrix(.24 0 -0 .24 -111 152.08002)" font-size="75" font-family="TimesNewRomanPSMT"><tspan y="-467" x="1901.146"> </tspan></text>
<text xml:space="preserve" transform="matrix(.24238809 0 -0 .2376354 -111 152.08002)" font-size="91.09358" font-family="STZhongsong"><tspan y="-387.96955" x="433.1896"> </tspan></text>
<text xml:space="preserve" transform="matrix(.24238809 0 -0 .2376354 -111 152.08002)" font-size="91.09358" font-family="STZhongsong"><tspan y="-387.96955" x="433.1896"> </tspan></text>
<text xml:space="preserve" transform="matrix(.24238809 0 -0 .2376354 -111 152.08002)" font-size="91.09358" font-family="STZhongsong"><tspan y="-304.14369" x="433.1896"> </tspan></text>
<text xml:space="preserve" transform="matrix(.24238809 0 -0 .2376354 -111 152.08002)" font-size="91.09358" font-family="STZhongsong"><tspan y="-304.14369" x="433.1896"> </tspan></text>
<text xml:space="preserve" transform="matrix(.24238809 0 -0 .2376354 -111 152.08002)" font-size="91.09358" font-family="STZhongsong"><tspan y="-220.31777" x="433.1896"> </tspan></text>
<text xml:space="preserve" transform="matrix(.24238809 0 -0 .2376354 -111 152.08002)" font-size="91.09358" font-family="STZhongsong"><tspan y="-220.31777" x="433.1896"> </tspan></text>
<text xml:space="preserve" transform="matrix(.24238809 0 -0 .2376354 -111 152.08002)" font-size="91.09358" font-family="STZhongsong"><tspan y="-135.48194" x="433.1896"> </tspan></text>
<text xml:space="preserve" transform="matrix(.24238809 0 -0 .2376354 -111 152.08002)" font-size="91.09358" font-family="STZhongsong"><tspan y="-135.48194" x="433.1896"> </tspan></text>
<text xml:space="preserve" transform="matrix(.24238809 0 -0 .2376354 -111 152.08002)" font-size="91.09358" font-family="STZhongsong"><tspan y="-51.656003" x="433.1896"> </tspan></text>
<text xml:space="preserve" transform="matrix(.24238809 0 -0 .2376354 -111 152.08002)" font-size="91.09358" font-family="STZhongsong"><tspan y="-51.656003" x="433.1896"> </tspan></text>
<text xml:space="preserve" transform="matrix(.24238809 0 -0 .2376354 -111 152.08002)" font-size="91.09358" font-family="STZhongsong"><tspan y="32.16989" x="433.1896"> </tspan></text>
<text xml:space="preserve" transform="matrix(.24238809 0 -0 .2376354 -111 152.08002)" font-size="91.09358" font-family="STZhongsong"><tspan y="32.16989" x="433.1896"> </tspan></text>
<text xml:space="preserve" transform="matrix(.24238809 0 -0 .2376354 -111 152.08002)" font-size="91.09358" font-family="STZhongsong"><tspan y="117.00569" x="751.27499">&#x672c;</tspan></text>
<text xml:space="preserve" transform="matrix(.24238809 0 -0 .2376354 -111 152.08002)" font-size="91.09358" font-family="STZhongsong"><tspan y="117.00569" x="751.27499">&#x672c;</tspan></text>
<text xml:space="preserve" transform="matrix(.24238809 0 -0 .2376354 -111 152.08002)" font-size="91.09358" font-family="STZhongsong"><tspan y="117.00569" x="842.1291"> </tspan></text>
<text xml:space="preserve" transform="matrix(.24238809 0 -0 .2376354 -111 152.08002)" font-size="91.09358" font-family="STZhongsong"><tspan y="117.00569" x="842.1291"> </tspan></text>
<text xml:space="preserve" transform="matrix(.24238809 0 -0 .2376354 -111 152.08002)" font-size="91.09358" font-family="STZhongsong"><tspan y="117.00569" x="887.5563">&#x79d1;</tspan></text>
<text xml:space="preserve" transform="matrix(.24238809 0 -0 .2376354 -111 152.08002)" font-size="91.09358" font-family="STZhongsong"><tspan y="117.00569" x="887.5563">&#x79d1;</tspan></text>
<text xml:space="preserve" transform="matrix(.24238809 0 -0 .2376354 -111 152.08002)" font-size="91.09358" font-family="STZhongsong"><tspan y="117.00569" x="978.41036"> </tspan></text>
<text xml:space="preserve" transform="matrix(.24238809 0 -0 .2376354 -111 152.08002)" font-size="91.09358" font-family="STZhongsong"><tspan y="117.00569" x="978.41036"> </tspan></text>
<text xml:space="preserve" transform="matrix(.24238809 0 -0 .2376354 -111 152.08002)" font-size="91.09358" font-family="STZhongsong"><tspan y="117.00569" x="1023.83749">&#x6bd5;</tspan></text>
<text xml:space="preserve" transform="matrix(.24238809 0 -0 .2376354 -111 152.08002)" font-size="91.09358" font-family="STZhongsong"><tspan y="117.00569" x="1023.83749">&#x6bd5;</tspan></text>
<text xml:space="preserve" transform="matrix(.24238809 0 -0 .2376354 -111 152.08002)" font-size="91.09358" font-family="STZhongsong"><tspan y="117.00569" x="1114.6914"> </tspan></text>
<text xml:space="preserve" transform="matrix(.24238809 0 -0 .2376354 -111 152.08002)" font-size="91.09358" font-family="STZhongsong"><tspan y="117.00569" x="1114.6914"> </tspan></text>
<text xml:space="preserve" transform="matrix(.24238809 0 -0 .2376354 -111 152.08002)" font-size="91.09358" font-family="STZhongsong"><tspan y="117.00569" x="1160.1184">&#x4e1a;</tspan></text>
<text xml:space="preserve" transform="matrix(.24238809 0 -0 .2376354 -111 152.08002)" font-size="91.09358" font-family="STZhongsong"><tspan y="117.00569" x="1160.1184">&#x4e1a;</tspan></text>
<text xml:space="preserve" transform="matrix(.24238809 0 -0 .2376354 -111 152.08002)" font-size="91.09358" font-family="STZhongsong"><tspan y="117.00569" x="1250.9734"> </tspan></text>
<text xml:space="preserve" transform="matrix(.24238809 0 -0 .2376354 -111 152.08002)" font-size="91.09358" font-family="STZhongsong"><tspan y="117.00569" x="1250.9734"> </tspan></text>
<text xml:space="preserve" transform="matrix(.24238809 0 -0 .2376354 -111 152.08002)" font-size="91.09358" font-family="STZhongsong"><tspan y="117.00569" x="1296.4004">&#x8bba;</tspan></text>
<text xml:space="preserve" transform="matrix(.24238809 0 -0 .2376354 -111 152.08002)" font-size="91.09358" font-family="STZhongsong"><tspan y="117.00569" x="1296.4004">&#x8bba;</tspan></text>
<text xml:space="preserve" transform="matrix(.24238809 0 -0 .2376354 -111 152.08002)" font-size="91.09358" font-family="STZhongsong"><tspan y="117.00569" x="1387.2543"> </tspan></text>
<text xml:space="preserve" transform="matrix(.24238809 0 -0 .2376354 -111 152.08002)" font-size="91.09358" font-family="STZhongsong"><tspan y="117.00569" x="1387.2543"> </tspan></text>
<text xml:space="preserve" transform="matrix(.24238809 0 -0 .2376354 -111 152.08002)" font-size="91.09358" font-family="STZhongsong"><tspan y="117.00569" x="1432.6813">&#x6587;</tspan></text>
<text xml:space="preserve" transform="matrix(.24238809 0 -0 .2376354 -111 152.08002)" font-size="91.09358" font-family="STZhongsong"><tspan y="117.00569" x="1432.6813">&#x6587;</tspan></text>
<text xml:space="preserve" transform="matrix(.24238809 0 -0 .2376354 -111 152.08002)" font-size="91.09358" font-family="STZhongsong"><tspan y="117.00569" x="1523.5352"> </tspan></text>
<text xml:space="preserve" transform="matrix(.24238809 0 -0 .2376354 -111 152.08002)" font-size="91.09358" font-family="STZhongsong"><tspan y="117.00569" x="1523.5352"> </tspan></text>
</g>
</svg>
